<svg viewBox="0 0 32 32" xml:space="preserve" xmlns="http://www.w3.org/2000/svg" enable-background="new 0 0 32 32"><g id="icons"><path d="M16 2C8.3 2 2 8.3 2 16s6.3 14 14 14 14-6.3 14-14S23.7 2 16 2zm6.3 16.7c-1.1.9-2.6 1.4-4.3 1.4-.5 0-1 0-1.5-.1-.1 0-.3.1-.3.2v2.3c-.1.9-.5 1.7-1.2 2.3-.5.4-1.2.6-1.8.6-.2 0-.4 0-.6-.1-1.1-.3-1.8-1.3-1.6-2.5l.1-.3c0-.2.3-.4.5-.3l1.6.3h.2s.1-.1.1-.2v-9.8c0-.4.3-.8.8-.8h1.3c.4 0 .8.3.8.8V17c0 .1.1.2.2.2 1.8.4 3.2.1 4.2-.6 1-.8 1.3-2.2 1.3-3.1 0-1-.6-2-1.6-2.8-1.1-.9-2.7-1.3-4.3-1.3-3.2 0-5.7 1.9-5.7 4.1 0 1.2.1 1.9.9 2.8.1.1.1.2.1.3 0 .1 0 .2-.1.3-1 1-2.7.6-3.2-.7-.3-.9-.4-1.7-.4-2.7 0-1.9.9-3.6 2.6-4.9 1.6-1.2 3.7-1.9 5.9-1.9s4.3.7 5.9 1.9c1.7 1.3 2.7 3 2.7 4.9-.4 2.2-1.2 4-2.6 5.2z" id="p" fill="#3cbfd9" class="fill-222a30"></path></g></svg>